<svg width="994" height="384" viewBox="0 0 994 384" fill="none" xmlns="http://www.w3.org/2000/svg">
<path d="M215.04 86.72V316H199.52C197.067 316 194.987 315.573 193.28 314.72C191.68 313.867 190.08 312.427 188.48 310.4L55.84 137.6C56.0533 140.267 56.2133 142.88 56.32 145.44C56.4267 148 56.48 150.4 56.48 152.64V316H29.28V86.72H45.28C46.6667 86.72 47.84 86.8267 48.8 87.04C49.76 87.1467 50.6133 87.4133 51.36 87.84C52.1067 88.16 52.8533 88.6933 53.6 89.44C54.3467 90.08 55.1467 90.9333 56 92L188.64 264.64C188.427 261.867 188.213 259.2 188 256.64C187.893 253.973 187.84 251.467 187.84 249.12V86.72H215.04ZM541.2 80.32V219.04H548.56C550.693 219.04 552.453 218.773 553.84 218.24C555.333 217.6 556.88 216.373 558.48 214.56L609.68 159.68C611.173 157.867 612.72 156.48 614.32 155.52C616.027 154.453 618.267 153.92 621.04 153.92H646.8L587.12 217.44C584.24 221.067 581.147 223.893 577.84 225.92C579.76 227.2 581.467 228.693 582.96 230.4C584.56 232 586.053 233.867 587.44 236L650.8 316H625.36C622.907 316 620.773 315.627 618.96 314.88C617.253 314.027 615.76 312.533 614.48 310.4L561.2 244C559.6 241.76 558 240.32 556.4 239.68C554.907 238.933 552.56 238.56 549.36 238.56H541.2V316H512.56V80.32H541.2ZM705.14 153.92V316H676.66V153.92H705.14ZM711.22 103.04C711.22 105.813 710.633 108.427 709.46 110.88C708.393 113.227 706.9 115.36 704.98 117.28C703.167 119.093 700.98 120.533 698.42 121.6C695.967 122.667 693.353 123.2 690.58 123.2C687.807 123.2 685.193 122.667 682.74 121.6C680.393 120.533 678.313 119.093 676.5 117.28C674.687 115.36 673.247 113.227 672.18 110.88C671.113 108.427 670.58 105.813 670.58 103.04C670.58 100.267 671.113 97.6533 672.18 95.2C673.247 92.64 674.687 90.4533 676.5 88.64C678.313 86.72 680.393 85.2267 682.74 84.16C685.193 83.0933 687.807 82.56 690.58 82.56C693.353 82.56 695.967 83.0933 698.42 84.16C700.98 85.2267 703.167 86.72 704.98 88.64C706.9 90.4533 708.393 92.64 709.46 95.2C710.633 97.6533 711.22 100.267 711.22 103.04ZM782.015 153.92V328C782.015 334.507 781.162 340.533 779.455 346.08C777.748 351.733 775.028 356.64 771.295 360.8C767.562 364.96 762.762 368.213 756.895 370.56C751.135 373.013 744.202 374.24 736.095 374.24C732.682 374.24 729.535 373.973 726.655 373.44C723.775 372.907 720.895 372.107 718.015 371.04L719.135 355.68C719.348 354.72 719.722 353.973 720.255 353.44C720.682 353.013 721.322 352.747 722.175 352.64C723.028 352.533 724.148 352.48 725.535 352.48C726.815 352.587 728.468 352.64 730.495 352.64C738.815 352.64 744.735 350.667 748.255 346.72C751.775 342.88 753.535 336.64 753.535 328V153.92H782.015ZM787.935 103.04C787.935 105.813 787.348 108.427 786.175 110.88C785.108 113.227 783.615 115.36 781.695 117.28C779.882 119.093 777.748 120.533 775.295 121.6C772.842 122.667 770.228 123.2 767.455 123.2C764.682 123.2 762.068 122.667 759.615 121.6C757.268 120.533 755.188 119.093 753.375 117.28C751.562 115.36 750.122 113.227 749.055 110.88C747.988 108.427 747.455 105.813 747.455 103.04C747.455 100.267 747.988 97.6533 749.055 95.2C750.122 92.64 751.562 90.4533 753.375 88.64C755.188 86.72 757.268 85.2267 759.615 84.16C762.068 83.0933 764.682 82.56 767.455 82.56C770.228 82.56 772.842 83.0933 775.295 84.16C777.748 85.2267 779.882 86.72 781.695 88.64C783.615 90.4533 785.108 92.64 786.175 95.2C787.348 97.6533 787.935 100.267 787.935 103.04ZM857.45 80.32V219.04H864.81C866.943 219.04 868.703 218.773 870.09 218.24C871.583 217.6 873.13 216.373 874.73 214.56L925.93 159.68C927.423 157.867 928.97 156.48 930.57 155.52C932.277 154.453 934.517 153.92 937.29 153.92H963.05L903.37 217.44C900.49 221.067 897.397 223.893 894.09 225.92C896.01 227.2 897.717 228.693 899.21 230.4C900.81 232 902.303 233.867 903.69 236L967.05 316H941.61C939.157 316 937.023 315.627 935.21 314.88C933.503 314.027 932.01 312.533 930.73 310.4L877.45 244C875.85 241.76 874.25 240.32 872.65 239.68C871.157 238.933 868.81 238.56 865.61 238.56H857.45V316H828.81V80.32H857.45Z" fill="#01A0E2"/>
<path d="M400.833 90.6569L411.469 87.2639C414.289 86.364 417.328 86.6012 419.916 87.9233C422.505 89.2454 424.43 91.544 425.27 94.3136L429.638 108.724L397.731 118.903L393.363 104.492C392.523 101.723 392.839 98.7093 394.24 96.1146C395.64 93.52 398.012 91.5567 400.833 90.6569ZM230.661 144.944L251.933 138.158C254.753 137.258 257.792 137.496 260.38 138.818C262.969 140.14 264.894 142.438 265.734 145.208L270.482 160.872L227.939 174.444L223.191 158.78C222.351 156.01 222.667 152.997 224.068 150.402C225.469 147.807 227.84 145.844 230.661 144.944Z" fill="#8B8886"/>
<path d="M298.893 155.561L232.1 176.868C229.28 177.768 226.908 179.731 225.507 182.326C224.106 184.921 223.791 187.934 224.63 190.704L262.615 316.015C263.455 318.785 265.381 321.083 267.969 322.405C270.557 323.727 273.596 323.965 276.417 323.065L499.767 251.813C502.588 250.913 504.96 248.95 506.361 246.355C507.761 243.76 508.077 240.747 507.237 237.977L469.252 112.666C468.412 109.896 466.487 107.598 463.899 106.276C461.31 104.954 458.272 104.716 455.451 105.616L399.294 123.531C397.066 124.248 394.684 124.259 392.485 123.564C390.285 122.868 388.38 121.5 387.038 119.653L376.135 104.464C374.793 102.618 372.887 101.25 370.688 100.554C368.488 99.8583 366.106 99.8696 363.878 100.587L315.379 116.058C313.148 116.764 311.18 118.141 309.753 119.993C308.326 121.846 307.513 124.081 307.428 126.383L306.844 145.236C306.759 147.538 305.946 149.773 304.519 151.626C303.092 153.479 301.124 154.855 298.893 155.561Z" fill="#961981"/>
<path d="M415.077 137.649C418.014 136.712 419.687 133.614 418.813 130.731C417.938 127.847 414.849 126.269 411.912 127.206C408.975 128.143 407.303 131.24 408.177 134.124C409.051 137.007 412.14 138.586 415.077 137.649Z" fill="#F50000"/>
<path d="M258.137 216.346C266.948 213.535 271.965 204.243 269.343 195.593C266.72 186.942 257.452 182.207 248.641 185.018C239.83 187.829 234.813 197.12 237.435 205.771C240.058 214.422 249.326 219.157 258.137 216.346Z" fill="white"/>
<path d="M341.767 126.679L320.495 133.464C319.085 133.914 317.565 133.796 316.271 133.135C314.977 132.474 314.014 131.324 313.595 129.94C313.175 128.555 313.332 127.048 314.033 125.751C314.733 124.453 315.919 123.472 317.33 123.022L338.601 116.236C340.012 115.786 341.531 115.905 342.825 116.566C344.119 117.227 345.082 118.376 345.502 119.761C345.922 121.146 345.764 122.652 345.063 123.95C344.363 125.247 343.177 126.229 341.767 126.679Z" fill="#8B8886"/>
<path d="M370.699 260.604C400.069 251.235 416.792 220.263 408.051 191.426C399.309 162.59 368.414 146.809 339.045 156.178C309.675 165.547 292.952 196.519 301.693 225.356C310.434 254.192 341.329 269.973 370.699 260.604Z" fill="#8B8886"/>
<path d="M364.368 239.719C381.99 234.097 392.024 215.514 386.779 198.212C381.534 180.91 362.997 171.442 345.375 177.063C327.754 182.685 317.72 201.268 322.965 218.57C328.209 235.872 346.746 245.34 364.368 239.719Z" fill="white"/>
<path d="M415.077 137.649C418.014 136.712 419.687 133.614 418.813 130.731C417.938 127.847 414.849 126.269 411.912 127.206C408.975 128.143 407.303 131.24 408.177 134.124C409.051 137.007 412.14 138.586 415.077 137.649Z" fill="#8B8886"/>
</svg>
